<svg width="120" height="40" viewBox="0 0 120 40" xmlns="http://www.w3.org/2000/svg">
  <defs>
    <linearGradient id="gradient1" x1="0%" y1="0%" x2="100%" y2="100%">
      <stop offset="0%" style="stop-color:#667eea;stop-opacity:1" />
      <stop offset="100%" style="stop-color:#764ba2;stop-opacity:1" />
    </linearGradient>
    <linearGradient id="gradient2" x1="0%" y1="0%" x2="100%" y2="100%">
      <stop offset="0%" style="stop-color:#f093fb;stop-opacity:1" />
      <stop offset="100%" style="stop-color:#f5576c;stop-opacity:1" />
    </linearGradient>
    <linearGradient id="gradient3" x1="0%" y1="0%" x2="100%" y2="100%">
      <stop offset="0%" style="stop-color:#4facfe;stop-opacity:1" />
      <stop offset="100%" style="stop-color:#00f2fe;stop-opacity:1" />
    </linearGradient>
    <filter id="glow">
      <feGaussianBlur stdDeviation="2" result="coloredBlur"/>
      <feMerge> 
        <feMergeNode in="coloredBlur"/>
        <feMergeNode in="SourceGraphic"/> 
      </feMerge>
    </filter>
  </defs>
  
  <!-- Background circle -->
  <circle cx="20" cy="20" r="18" fill="url(#gradient1)" opacity="0.1"/>
  
  <!-- Stack layers representing multi-focus concept -->
  <g transform="translate(8, 12)">
    <!-- Layer 1 (back) -->
    <rect x="0" y="4" width="16" height="12" rx="2" fill="url(#gradient1)" opacity="0.6" transform="rotate(-5 8 10)"/>
    <!-- Layer 2 (middle) -->
    <rect x="2" y="2" width="16" height="12" rx="2" fill="url(#gradient2)" opacity="0.8" transform="rotate(0 10 8)"/>
    <!-- Layer 3 (front) -->
    <rect x="4" y="0" width="16" height="12" rx="2" fill="url(#gradient3)" opacity="1" transform="rotate(5 12 6)"/>
    
    <!-- Focus point indicator -->
    <circle cx="12" cy="8" r="2" fill="#ffffff" filter="url(#glow)"/>
    <circle cx="12" cy="8" r="1" fill="#667eea"/>
  </g>
  
  <!-- Text -->
  <text x="45" y="16" font-family="Arial, sans-serif" font-size="14" font-weight="bold" fill="#2c3e50">
    StackMFF
  </text>
  <text x="45" y="30" font-family="Arial, sans-serif" font-size="10" font-weight="600" fill="#667eea">
    V2
  </text>
  
  <!-- Subtle geometric accent -->
  <g transform="translate(105, 8)">
    <polygon points="0,0 8,4 0,8 2,4" fill="url(#gradient1)" opacity="0.7"/>
    <polygon points="2,2 6,4 2,6" fill="#ffffff" opacity="0.8"/>
  </g>
</svg>